<?xml version="1.0" encoding="UTF-8"?>
<svg id="Layer_1" xmlns="http://www.w3.org/2000/svg" version="1.1" viewBox="0 0 1100 1100">
  <!-- Generator: Adobe Illustrator 29.0.0, SVG Export Plug-In . SVG Version: 2.1.0 Build 186)  -->
  <defs>
    <style>
      .st0 {
        fill: #f30601;
      }

      .st1 {
        fill: #fefefe;
        stroke: #000;
        stroke-miterlimit: 10;
      }
    </style>
  </defs>
  <g id="_x23_f30601fd">
    <path class="st0" d="M828.2,152.5c3.7,0,7.4.9,10.7,2.6,34.8,18.2,65.8,42.8,93.4,70.6,52.5,51.1,90.7,115.8,114.2,185,28.9,82.5,34,173.5,12.6,258.3-14.7,60.8-42.9,118.2-82,167-4.9,6.1-9.6,13.3-17.7,15.4-14.1,4.2-28.9-10.8-24.9-25,3.3-11.8,13.7-19.8,20.1-29.9,37.6-55.2,62.3-119.6,69.9-186,9.2-71.5-1-145.3-29.5-211.5-35.3-84.1-96.8-157.6-174.9-205.1-7-4.2-13.6-11.3-13-20-1.3-11.6,9.9-21.8,21.2-21.4Z"/>
    <path class="st0" d="M268.5,153.6c10.6-3.7,22.4,2.7,26,13.1,2.1,8.6-1.4,18.1-8.4,23.4-9.3,6.9-19.6,12.3-29,19-48.4,34.4-89.7,78.6-120.9,129-52.2,82-72.7,182.9-59,278.9,9.8,63.6,31.8,126.1,68.8,179.1,5.6,8.3,12.6,15.5,18.3,23.7,6.4,10.4,1.6,25.8-9.9,30.6-8.6,3.5-19.9,1.9-26-5.7-78.1-92.7-109.9-219-97.1-338.4,7.1-58.9,26.4-115.8,53.8-168.3,25.4-47,58.6-89.8,97.8-126.1,20.3-18.5,42.1-35.5,66.3-48.7,6.3-3.2,12.2-8.1,19.2-9.6Z"/>
    <path class="st0" d="M325.5,233.6c12.9-4.2,28.4,6.6,27.4,20.4.9,11.1-9.2,18.3-17.9,23-83.8,52.5-143,143.6-155.1,242-12,87.7,10.8,181.6,67.9,250.2,6.3,6.7,6.7,17.7,1.3,25-5.3,5.3-12.1,10.3-20.1,9.7-6.6.4-12.7-3.2-17.1-7.8-27.8-32.7-47-71.9-60.5-112.3-11.7-37.4-18.2-76.5-18.4-115.7-2.1-93.6,32.8-187.2,94.7-257.3,25.3-30.4,56.6-55.8,91.3-74.7,2-1.1,4.2-2,6.5-2.4Z"/>
    <path class="st0" d="M767.5,233.5c8-2.3,15,2.7,21.6,6.4,69.6,41.7,122.8,108.1,152.8,183.1,46.2,115,31.9,253.3-40.3,354.6-6,8.2-11.5,17.1-19.7,23.3-13.5,8.5-33.6-3.1-33-19,.3-10.8,9.3-17.8,14.9-26,43.7-61.9,65.1-138.9,60.7-214.4-3.5-64.7-29.6-126.7-67.6-178.6-26.2-35.9-59.7-66-97-90-10.3-6-13.8-21.6-6-30.9,2.9-4.6,8.2-7.4,13.4-8.5Z"/>
    <path class="st0" d="M379.4,327.4c10.9-2,23.8,5.6,25,17.1,2.9,11.3-4.8,21.6-14.2,26.8-33.2,21.1-60,51.5-79.2,85.8-34.8,63.8-37.5,143.9-7,209.9,4.1,9.6,11.8,18.6,9.7,29.9-2.1,11.7-14.8,19.8-26.4,16.8-9-1.7-14.8-9.7-18.5-17.4-16.1-34.3-27.5-71.2-30.1-109.1-2.6-30.3.9-60.7,8.1-90.1,11.3-43.5,34.4-83.4,64.4-116.7,13.2-15.8,29.4-28.8,45.6-41.4,6.9-4.8,13.9-10.7,22.6-11.5Z"/>
    <path class="st0" d="M715.4,327.5c7-1.2,13.5,2.3,19,6.2,55.9,37.6,99.3,94.2,119.3,158.7,9.4,32.1,12.3,66,10,99.4-3.4,37.4-15.2,73.7-31.8,107.2-3.6,8.1-11.4,15.6-20.9,15-6.6,1.2-12.5-2.7-17.1-6.8-5.2-5.2-5.3-13.2-4.6-20,2.3-8.8,8.3-15.9,11.8-24.1,24.6-56.5,26.6-123.3,2.1-180.2-19.5-44-50-84.1-91.1-109.9-7.7-5-16.8-11.8-16-22-1.5-11.5,7.7-23,19.4-23.5Z"/>
    <path class="st0" d="M736.4,578.8c-.4-1.1-.6-2.3-.4-3.5"/>
    <path class="st0" d="M736,601.7c-.2-1.2,0-2.4.5-3.4"/>
    <path class="st0" d="M293.3,854c1.2,0,2.3,0,3.5.5"/>
    <path class="st0" d="M305.1,854.5c1.1-.8,2.6-.9,3.8-.1"/>
    <path class="st0" d="M484,888.5c0,1,0,1.9,0,2.9"/>
  </g>
  <g id="_x23_fefefeff">
    <path class="st1" d="M516.7,316.7c14.2-13.3,36.4-15.4,54.1-8.6,12.2,4.5,21.3,16.3,22.6,29.2,1.2,16.4.3,32.8.7,49.2,31.4,8.2,59.5,26.3,82.6,48.6,36.2,37.2,57.7,88.2,59.2,140-.2,1.2,0,20.3,0,26.4.5,26.7-5.3,52.8-5.9,79.3,2.1,19.9,13.9,36.9,25.3,52.6,21.1,28,44.4,54.2,67.3,80.7,3.4,4.5,6.6,9.8,6.3,15.7,1,8-4.4,14.9-10.3,19.6-7,5.2-16.4,4.8-24.6,5.3-160,.2-320.1-.1-480.1.1-1.7,0-19.3-.9-20.6-1.1-11.5-.7-21.9-11.2-21.2-23-1.2-9.2,5.7-16.2,11-22.8,22.3-25.5,44.4-51.1,64.9-78.1,12.7-17,24-37,22.7-59-2.1-38.9-7.9-78.1-2.7-117,8.5-59,41.3-115.8,92.9-147,13.9-9,29.1-15.7,44.9-20.4.1-14.9-.1-29.8.2-44.6.3-9.4,4.4-18.4,10.7-25.3Z"/>
    <path class="st1" d="M494.3,869.3c6.7-5,15.7-4.9,23.6-5.3,21.7-.2,43.4,0,65.1-.1,8.9-.4,18.4,1.7,25.3,7.8,9.6,7.9,11.4,23.5,3.7,33.3-9,11.3-21.8,18.6-33.9,26-8.8,4.7-17.6,11.1-28,10.9-9.5-1.3-17.8-6.3-26-10.9-12-6.9-24.2-14.1-33.8-24.2-3.4-4.4-6.4-9.6-6.2-15.3,0-1,0-2,0-2.9-.6-7.8,4.7-14.5,10.4-19.2Z"/>
  </g>
</svg>