<?xml version="1.0" encoding="UTF-8"?>
<svg id="Layer_1" xmlns="http://www.w3.org/2000/svg" version="1.1" viewBox="0 0 1100 1100">
  <!-- Generator: Adobe Illustrator 29.0.0, SVG Export Plug-In . SVG Version: 2.1.0 Build 186)  -->
  <defs>
    <style>
      .st0 {
        fill: #10d0ff;
      }

      .st1 {
        fill: #fff;
      }

      .st2 {
        fill: #21a5ff;
      }

      .st3 {
        fill: #0eccff;
      }
    </style>
  </defs>
  <path class="st2" d="M262.5,160.5c12.9-3.5,28.3,6.6,27.6,20.6,1.3,10.8-7.6,19-16.1,23.8-69.9,44.3-126.8,109.2-159.9,185.1-34.4,78.4-45.6,167.5-27.5,251.4,11.4,54.4,32.7,107.4,66,152.1,5.3,7.6,12.8,14.7,13.4,24.6.3,12.1-10.7,23.2-22.9,22.8-8.9.8-17.5-4.3-22.2-11.7-46.6-61.5-75.4-135.7-85-212.1-13.1-97.9,8.9-198.9,56.1-285.2,24.2-44.4,57.6-83.2,94.6-117.5,15-13.5,30.6-26.4,47.6-37.4,9.2-5.8,17.7-13.5,28.3-16.6Z"/>
  <path class="st2" d="M828.4,160.5c5.3-.6,11-.4,15.7,2.4,36,21,68.5,47.6,97.3,77.7,29.5,29.8,54.2,64.3,73.5,101.4,13.9,26.5,24.4,54.7,33.9,83.1,21.2,67.8,26,140.8,13.9,210.8-12.5,70.3-39.6,139.2-85.3,194.6-4.4,5.8-10.8,11-18.6,10.5-12.6,1.4-25-10-24.5-22.7,1.2-11.4,10.3-19.5,16.8-28,44.3-60.5,68.3-134.6,71.7-209.2,3.6-50-4.9-100.2-20.3-147.7-29.4-90.2-88.1-172-168.8-223.2-8.6-6.2-21-11.3-23.2-22.8-3.5-11.9,5.8-25.1,17.8-26.8Z"/>
  <path class="st3" d="M312.4,251.4c11.1-1.7,23.4,5.5,25.1,17,2.7,9.9-3.6,19.2-11.6,24.4-34.2,23.1-65,51.4-88.9,85.1-47.2,65.6-68.2,149.4-57.5,229.5,4.6,28.5,11.6,56.8,24.1,83,10.3,23.2,24.1,44.6,39.4,64.7,5.5,6.3,9,15.8,5.1,23.8-4.1,10.9-17.1,16.8-28.1,13.3-10.5-4.2-16.4-14.5-23-23.1-51-72.7-74.1-164.9-61.6-253,8.1-55.1,27.4-109,58.8-155.1,14.8-22.3,32.6-42.5,51.7-61.3,14.3-14.6,30.4-27.2,47.3-38.7,6.2-3.7,11.9-8.9,19.4-9.6Z"/>
  <path class="st3" d="M779.5,252.6c6.7-1.5,14-.9,19.6,3.3,61.3,37.7,108.4,95.9,138,161.1,31.5,70.2,41.4,151,23.1,226.1-7.3,33-19.2,65-35.5,94.6-10.9,18.2-21.8,37-37.7,51.3-13.2,10.6-36.2.2-36-17.1-1.5-7.8,4.1-13.9,8.3-19.6,49.3-61.7,71-143.6,63.3-221.8-7.8-67.1-38-131-82.8-181.3-16.8-19.6-36.7-36.4-57.9-51.1-6.9-5.2-15.6-10.4-17.5-19.5-2.9-10.7,4.1-23.6,15-26Z"/>
  <path class="st0" d="M370.5,337.5c12.3-2.8,25.1,8,24.5,20.6,1.2,10.2-7.4,17.7-14.9,23-27.9,19.8-51.5,45.6-68.9,75.1-34,58.6-37.1,133-11.7,195.5,3.8,11,12,21.5,9.9,33.6-2.8,13.9-20,20.7-32.1,14.6-5.5-2.6-9.8-7.2-12-12.8-17.1-39-27.5-81.2-27.2-124-.9-89.3,48.4-177.2,124.9-223.1,2.4-1.3,5-2.1,7.6-2.4Z"/>
  <path class="st0" d="M722.4,337.4c4.8-1.2,9.5.4,13.9,2.3,49.3,31,89.2,77.6,109.7,132.3,13.7,35.1,18.7,73.3,16.8,110.8-2.3,36-12.4,71.2-26.8,104.2-4.7,12.1-20,18.7-31.9,12.9-7.9-3.1-13.3-11.4-12.9-19.9,0-9.7,6.2-17.6,9.6-26.3,22.1-53.6,23.2-115.9,1.3-169.8-16-39.4-43.5-74-77.4-99.5-8.7-5.7-19.7-12.7-19.7-24.5-1.6-10.6,7.1-21.1,17.5-22.5Z"/>
  <g id="_x23_ffffffff">
    <path class="st1" d="M533.6,307.5c14.7-4,31.7-3.7,44.4,5.4,10,5.6,15.3,16.9,16.2,28,1.2,14.5.6,29.1.9,43.7,33,12.5,63.5,31.7,88.6,56.6,17.7,17.9,32.4,39.2,40.7,63.1,8.1,22.1,10.5,45.8,12,69.1,1.2,35.3-3.4,70.6-3,106-1,17.4,10.4,31.6,20.7,44.4,17.4,21.9,34.7,43.8,52.9,65.1,7.7,9.6,16.3,18.6,22.7,29.2,4.2,7.8,2,18.3-5.2,23.6-4.7,4.5-11.7,4.2-17.7,4.3-171.7,0-343.4,0-515.1,0-6.9.7-14.3-1.8-18.7-7.4-6.5-6.8-5.6-18.3,0-25.4,8.4-11.5,18.3-21.7,27.3-32.7,17-20.7,34.1-41.3,50.8-62.3,9.3-11.9,19.4-25.2,17.5-41.4-1.5-38.1-5.6-76.3-3.6-114.5,2.4-31.8,10.7-63.8,28.6-90.5,25.6-40.8,67-69.1,110.9-87.3,1.1-17.1-2.3-34.7,2.5-51.3,4.3-11.9,14.5-21.4,26.3-25.8Z"/>
    <path class="st1" d="M500.4,866.6c28.2-1.4,56.4,0,84.6-.7,9.1.3,20.2-1.2,27.3,5.8,8.5,6.8,8.7,20.5,2.1,28.8-8.8,10.9-21.5,17.6-33.4,24.5-11.3,5.4-22.4,14.3-35.8,11.8-8.6-2-16.3-6.9-24.1-10.8-11.1-6.6-22.8-12.7-31.7-22.2-5.6-6-7.5-14.4-6-22.3,2-7.8,8.9-14.5,17.1-14.8Z"/>
  </g>
</svg>